<mxfile host="app.diagrams.net" modified="2024-06-28T05:34:15.250Z" agent="Mozilla/5.0 (Windows NT 10.0; Win64; x64) AppleWebKit/537.36 (KHTML, like Gecko) Chrome/126.0.0.0 Safari/537.36" etag="b97oMoTSzfFbFLES2CaJ" version="24.6.4" type="device">
  <diagram name="Halaman-1" id="YU3KPKPl0fu1Fuzuouam">
    <mxGraphModel dx="1354" dy="593" grid="1" gridSize="10" guides="1" tooltips="1" connect="1" arrows="1" fold="1" page="1" pageScale="1" pageWidth="827" pageHeight="1169" math="0" shadow="0">
      <root>
        <mxCell id="0" />
        <mxCell id="1" parent="0" />
        <mxCell id="45nPjNOH6dYFNVEzYJMA-1" value="" style="rounded=0;whiteSpace=wrap;html=1;" vertex="1" parent="1">
          <mxGeometry x="90" y="70" width="590" height="360" as="geometry" />
        </mxCell>
        <mxCell id="45nPjNOH6dYFNVEzYJMA-2" value="&lt;i&gt;&lt;font style=&quot;font-size: 14px;&quot;&gt;User&lt;/font&gt;&lt;/i&gt;" style="shape=umlActor;verticalLabelPosition=bottom;verticalAlign=top;html=1;outlineConnect=0;" vertex="1" parent="1">
          <mxGeometry x="120" y="190" width="30" height="60" as="geometry" />
        </mxCell>
        <mxCell id="45nPjNOH6dYFNVEzYJMA-3" value="" style="rounded=0;whiteSpace=wrap;html=1;" vertex="1" parent="1">
          <mxGeometry x="169" y="95" width="490" height="320" as="geometry" />
        </mxCell>
        <mxCell id="45nPjNOH6dYFNVEzYJMA-4" value="&lt;font style=&quot;font-size: 14px;&quot; face=&quot;Times New Roman&quot;&gt;Melakukan &lt;i&gt;load data&lt;/i&gt;&lt;/font&gt;" style="ellipse;whiteSpace=wrap;html=1;" vertex="1" parent="1">
          <mxGeometry x="340" y="220" width="175" height="70" as="geometry" />
        </mxCell>
        <mxCell id="45nPjNOH6dYFNVEzYJMA-6" value="&lt;font face=&quot;Times New Roman&quot;&gt;&lt;span style=&quot;font-size: 14px;&quot;&gt;Menampilkan hasil prediksi&lt;/span&gt;&lt;/font&gt;" style="ellipse;whiteSpace=wrap;html=1;" vertex="1" parent="1">
          <mxGeometry x="340" y="110" width="175" height="70" as="geometry" />
        </mxCell>
        <mxCell id="45nPjNOH6dYFNVEzYJMA-7" value="&lt;font face=&quot;Times New Roman&quot;&gt;&lt;span style=&quot;font-size: 14px;&quot;&gt;Menampilkan hasil klasifikasi&lt;/span&gt;&lt;/font&gt;" style="ellipse;whiteSpace=wrap;html=1;" vertex="1" parent="1">
          <mxGeometry x="340" y="330" width="175" height="70" as="geometry" />
        </mxCell>
        <mxCell id="45nPjNOH6dYFNVEzYJMA-9" value="" style="endArrow=classic;html=1;rounded=0;exitX=0.5;exitY=1;exitDx=0;exitDy=0;" edge="1" parent="1" source="45nPjNOH6dYFNVEzYJMA-6" target="45nPjNOH6dYFNVEzYJMA-4">
          <mxGeometry relative="1" as="geometry">
            <mxPoint x="540" y="200" as="sourcePoint" />
            <mxPoint x="640" y="200" as="targetPoint" />
          </mxGeometry>
        </mxCell>
        <mxCell id="45nPjNOH6dYFNVEzYJMA-10" value="&lt;font style=&quot;font-size: 12px;&quot; face=&quot;Times New Roman&quot;&gt;include&lt;/font&gt;" style="edgeLabel;resizable=0;html=1;;align=center;verticalAlign=middle;" connectable="0" vertex="1" parent="45nPjNOH6dYFNVEzYJMA-9">
          <mxGeometry relative="1" as="geometry" />
        </mxCell>
        <mxCell id="45nPjNOH6dYFNVEzYJMA-12" value="include" style="endArrow=classic;html=1;rounded=0;exitX=0.5;exitY=0;exitDx=0;exitDy=0;" edge="1" parent="1" source="45nPjNOH6dYFNVEzYJMA-7" target="45nPjNOH6dYFNVEzYJMA-4">
          <mxGeometry relative="1" as="geometry">
            <mxPoint x="550" y="250" as="sourcePoint" />
            <mxPoint x="650" y="250" as="targetPoint" />
          </mxGeometry>
        </mxCell>
        <mxCell id="45nPjNOH6dYFNVEzYJMA-14" value="" style="endArrow=none;html=1;rounded=0;exitX=1;exitY=0.3333333333333333;exitDx=0;exitDy=0;exitPerimeter=0;entryX=0;entryY=0.5;entryDx=0;entryDy=0;" edge="1" parent="1" source="45nPjNOH6dYFNVEzYJMA-2" target="45nPjNOH6dYFNVEzYJMA-6">
          <mxGeometry width="50" height="50" relative="1" as="geometry">
            <mxPoint x="170" y="220" as="sourcePoint" />
            <mxPoint x="220" y="170" as="targetPoint" />
          </mxGeometry>
        </mxCell>
        <mxCell id="45nPjNOH6dYFNVEzYJMA-15" value="" style="endArrow=none;html=1;rounded=0;entryX=0.018;entryY=0.632;entryDx=0;entryDy=0;entryPerimeter=0;exitX=1;exitY=0.3333333333333333;exitDx=0;exitDy=0;exitPerimeter=0;" edge="1" parent="1" source="45nPjNOH6dYFNVEzYJMA-2" target="45nPjNOH6dYFNVEzYJMA-4">
          <mxGeometry width="50" height="50" relative="1" as="geometry">
            <mxPoint x="250" y="280" as="sourcePoint" />
            <mxPoint x="300" y="230" as="targetPoint" />
          </mxGeometry>
        </mxCell>
        <mxCell id="45nPjNOH6dYFNVEzYJMA-16" value="" style="endArrow=none;html=1;rounded=0;entryX=0;entryY=0.5;entryDx=0;entryDy=0;exitX=1;exitY=0.3333333333333333;exitDx=0;exitDy=0;exitPerimeter=0;" edge="1" parent="1" source="45nPjNOH6dYFNVEzYJMA-2" target="45nPjNOH6dYFNVEzYJMA-7">
          <mxGeometry width="50" height="50" relative="1" as="geometry">
            <mxPoint x="169" y="270" as="sourcePoint" />
            <mxPoint x="319" y="360" as="targetPoint" />
          </mxGeometry>
        </mxCell>
        <mxCell id="45nPjNOH6dYFNVEzYJMA-17" value="&lt;font face=&quot;Times New Roman&quot; style=&quot;font-size: 14px;&quot;&gt;Sistem&lt;/font&gt;" style="text;html=1;align=center;verticalAlign=middle;whiteSpace=wrap;rounded=0;" vertex="1" parent="1">
          <mxGeometry x="590" y="110" width="60" height="30" as="geometry" />
        </mxCell>
      </root>
    </mxGraphModel>
  </diagram>
</mxfile>
